{
.appVersion = "895";
copyright = "Copyright 2016 Google Inc. All Rights Reserved.";
customParameters = (
{
name = description;
value = "Designed by Monotype design team.";
},
{
name = license;
value = "This Font Software is licensed under the SIL Open Font License, Version 1.1. This Font Software is distributed on an \"AS IS\" BASIS, WITHOUT WARRANTIES OR CONDITIONS OF ANY KIND, either express or implied. See the SIL Open Font License for the specific language, permissions and limitations governing your use of this Font Software.";
},
{
name = licenseURL;
value = "http://scripts.sil.org/OFL";
},
{
name = vendorID;
value = GOOG;
},
{
name = trademark;
value = "Noto is a trademark of Google Inc.";
},
{
name = fsType;
value = (
);
},
{
name = panose;
value = (
2,
11,
5,
2,
4,
5,
4,
2,
2,
4
);
},
{
name = unicodeRanges;
value = (
57,
85
);
},
{
name = codePageRanges;
value = (
1252
);
}
);
date = "2016-11-10 14:19:55 +0000";
designer = "Monotype Design Team";
designerURL = "http://www.monotype.com/studio";
familyName = "Noto Sans Old Italic";
fontMaster = (
{
ascender = 2189;
capHeight = 1462;
customParameters = (
{
name = typoAscender;
value = 2189;
},
{
name = typoDescender;
value = -600;
},
{
name = typoLineGap;
value = 0;
},
{
name = winAscent;
value = 2189;
},
{
name = winDescent;
value = 600;
},
{
name = hheaAscender;
value = 2189;
},
{
name = hheaDescender;
value = -600;
},
{
name = underlinePosition;
value = -205;
},
{
name = underlineThickness;
value = 102;
}
);
descender = -600;
id = "60C83504-FF70-4262-AE64-4B4BEFC19963";
weightValue = 400;
widthValue = 5;
xHeight = 1098;
}
);
glyphs = (
{
glyphname = .notdef;
lastChange = "2016-11-10 14:19:37 +0000";
layers = (
{
layerId = "60C83504-FF70-4262-AE64-4B4BEFC19963";
paths = (
{
closed = 1;
nodes = (
"1034 0 LINE",
"1034 1462 LINE",
"193 1462 LINE",
"193 0 LINE"
);
},
{
closed = 1;
nodes = (
"297 1358 LINE",
"930 1358 LINE",
"930 104 LINE",
"297 104 LINE"
);
}
);
width = 1229;
}
);
note = .notdef;
},
{
glyphname = g4;
lastChange = "2016-11-10 14:19:37 +0000";
layers = (
{
layerId = "60C83504-FF70-4262-AE64-4B4BEFC19963";
paths = (
{
closed = 1;
nodes = (
"283 197 OFFCURVE",
"322 360 OFFCURVE",
"356 474 CURVE SMOOTH",
"390 587 OFFCURVE",
"424 676 OFFCURVE",
"459 741 CURVE",
"1067 0 LINE",
"1231 0 LINE",
"1231 1440 LINE",
"1130 1470 LINE",
"727 1270 OFFCURVE",
"529 1128 OFFCURVE",
"392 951 CURVE SMOOTH",
"255 774 OFFCURVE",
"171 551 OFFCURVE",
"55 14 CURVE",
"238 -14 LINE"
);
},
{
closed = 1;
nodes = (
"569 895 LINE",
"657 995 OFFCURVE",
"768 1082 OFFCURVE",
"1049 1245 CURVE",
"1049 291 LINE"
);
}
);
width = 1470;
}
);
note = g4;
},
{
glyphname = g5;
lastChange = "2016-11-10 14:19:37 +0000";
layers = (
{
layerId = "60C83504-FF70-4262-AE64-4B4BEFC19963";
paths = (
{
closed = 1;
nodes = (
"1044 16 LINE",
"1044 1448 LINE",
"936 1491 LINE",
"790 1461 OFFCURVE",
"659 1423 OFFCURVE",
"542 1376 CURVE SMOOTH",
"308 1283 OFFCURVE",
"172 1172 OFFCURVE",
"172 1073 CURVE SMOOTH",
"172 1026 OFFCURVE",
"203 977 OFFCURVE",
"264 928 CURVE SMOOTH",
"325 879 OFFCURVE",
"433 819 OFFCURVE",
"588 748 CURVE",
"432 672 OFFCURVE",
"319 602 OFFCURVE",
"249 538 CURVE SMOOTH",
"178 474 OFFCURVE",
"143 411 OFFCURVE",
"143 348 CURVE SMOOTH",
"143 303 OFFCURVE",
"175 257 OFFCURVE",
"240 209 CURVE SMOOTH",
"369 113 OFFCURVE",
"614 26 OFFCURVE",
"930 -33 CURVE"
);
},
{
closed = 1;
nodes = (
"705 191 OFFCURVE",
"583 230 OFFCURVE",
"493 272 CURVE SMOOTH",
"403 313 OFFCURVE",
"358 348 OFFCURVE",
"358 375 CURVE SMOOTH",
"358 413 OFFCURVE",
"404 463 OFFCURVE",
"495 524 CURVE SMOOTH",
"586 585 OFFCURVE",
"707 649 OFFCURVE",
"860 717 CURVE",
"860 154 LINE"
);
},
{
closed = 1;
nodes = (
"721 837 OFFCURVE",
"607 893 OFFCURVE",
"517 946 CURVE SMOOTH",
"426 999 OFFCURVE",
"381 1041 OFFCURVE",
"381 1073 CURVE SMOOTH",
"381 1110 OFFCURVE",
"428 1151 OFFCURVE",
"521 1196 CURVE SMOOTH",
"614 1241 OFFCURVE",
"727 1280 OFFCURVE",
"860 1313 CURVE",
"860 780 LINE"
);
}
);
width = 1284;
}
);
note = g5;
},
{
glyphname = g6;
lastChange = "2016-11-10 14:19:37 +0000";
layers = (
{
layerId = "60C83504-FF70-4262-AE64-4B4BEFC19963";
paths = (
{
closed = 1;
nodes = (
"305 12 OFFCURVE",
"441 86 OFFCURVE",
"563 175 CURVE SMOOTH",
"806 354 OFFCURVE",
"954 572 OFFCURVE",
"954 748 CURVE SMOOTH",
"954 838 OFFCURVE",
"921 932 OFFCURVE",
"854 1029 CURVE SMOOTH",
"721 1224 OFFCURVE",
"472 1396 OFFCURVE",
"164 1499 CURVE",
"82 1341 LINE",
"326 1253 OFFCURVE",
"493 1138 OFFCURVE",
"601 1028 CURVE SMOOTH",
"708 918 OFFCURVE",
"754 810 OFFCURVE",
"754 741 CURVE SMOOTH",
"754 680 OFFCURVE",
"725 610 OFFCURVE",
"668 531 CURVE SMOOTH",
"552 372 OFFCURVE",
"341 214 OFFCURVE",
"78 109 CURVE",
"156 -45 LINE"
);
}
);
width = 1075;
}
);
note = g6;
},
{
glyphname = g7;
lastChange = "2016-11-10 14:19:37 +0000";
layers = (
{
layerId = "60C83504-FF70-4262-AE64-4B4BEFC19963";
paths = (
{
closed = 1;
nodes = (
"1083 0 LINE",
"1083 1450 LINE",
"979 1481 LINE",
"817 1439 OFFCURVE",
"675 1390 OFFCURVE",
"554 1334 CURVE SMOOTH",
"310 1221 OFFCURVE",
"176 1094 OFFCURVE",
"176 981 CURVE SMOOTH",
"176 924 OFFCURVE",
"202 867 OFFCURVE",
"254 808 CURVE SMOOTH",
"305 749 OFFCURVE",
"391 679 OFFCURVE",
"510 598 CURVE",
"106 215 LINE",
"236 90 LINE",
"733 569 LINE",
"733 655 LINE",
"497 790 OFFCURVE",
"379 902 OFFCURVE",
"379 989 CURVE SMOOTH",
"379 1016 OFFCURVE",
"402 1049 OFFCURVE",
"449 1088 CURVE SMOOTH",
"541 1164 OFFCURVE",
"706 1241 OFFCURVE",
"899 1296 CURVE",
"899 0 LINE"
);
}
);
width = 1323;
}
);
note = g7;
},
{
glyphname = g8;
lastChange = "2016-11-10 14:19:37 +0000";
layers = (
{
layerId = "60C83504-FF70-4262-AE64-4B4BEFC19963";
paths = (
{
closed = 1;
nodes = (
"754 279 LINE",
"754 0 LINE",
"938 0 LINE",
"938 1456 LINE",
"862 1481 LINE",
"143 1217 LINE",
"205 1061 LINE",
"754 1272 LINE",
"754 948 LINE",
"133 688 LINE",
"199 537 LINE",
"754 774 LINE",
"754 463 LINE",
"84 125 LINE",
"164 -25 LINE"
);
}
);
width = 1178;
}
);
note = g8;
},
{
glyphname = g9;
lastChange = "2016-11-10 14:19:37 +0000";
layers = (
{
layerId = "60C83504-FF70-4262-AE64-4B4BEFC19963";
paths = (
{
closed = 1;
nodes = (
"924 0 LINE",
"924 1460 LINE",
"850 1485 LINE",
"123 1178 LINE",
"199 1016 LINE",
"739 1253 LINE",
"739 788 LINE",
"96 520 LINE",
"170 358 LINE",
"739 604 LINE",
"739 0 LINE"
);
}
);
width = 1163;
}
);
note = g9;
},
{
glyphname = g10;
lastChange = "2016-11-10 14:19:37 +0000";
layers = (
{
layerId = "60C83504-FF70-4262-AE64-4B4BEFC19963";
paths = (
{
closed = 1;
nodes = (
"688 0 LINE",
"688 352 LINE",
"1102 500 LINE",
"1044 655 LINE",
"688 526 LINE",
"688 1022 LINE",
"1102 1165 LINE",
"1044 1321 LINE",
"688 1194 LINE",
"688 1464 LINE",
"504 1464 LINE",
"504 1128 LINE",
"96 985 LINE",
"154 829 LINE",
"504 958 LINE",
"504 463 LINE",
"96 319 LINE",
"154 164 LINE",
"504 287 LINE",
"504 0 LINE"
);
}
);
width = 1198;
}
);
note = g10;
},
{
glyphname = g11;
lastChange = "2016-11-10 14:19:37 +0000";
layers = (
{
layerId = "60C83504-FF70-4262-AE64-4B4BEFC19963";
paths = (
{
closed = 1;
nodes = (
"1399 82 LINE",
"1399 1380 LINE",
"240 1380 LINE",
"240 82 LINE"
);
},
{
closed = 1;
nodes = (
"418 651 LINE",
"1221 651 LINE",
"1221 244 LINE",
"418 244 LINE"
);
},
{
closed = 1;
nodes = (
"418 1219 LINE",
"1221 1219 LINE",
"1221 813 LINE",
"418 813 LINE"
);
}
);
width = 1638;
}
);
note = g11;
},
{
glyphname = g12;
lastChange = "2016-11-10 14:19:37 +0000";
layers = (
{
layerId = "60C83504-FF70-4262-AE64-4B4BEFC19963";
paths = (
{
closed = 1;
nodes = (
"950 66 OFFCURVE",
"1067 95 OFFCURVE",
"1172 154 CURVE SMOOTH",
"1383 270 OFFCURVE",
"1505 489 OFFCURVE",
"1505 741 CURVE SMOOTH",
"1505 870 OFFCURVE",
"1475 985 OFFCURVE",
"1416 1086 CURVE SMOOTH",
"1297 1289 OFFCURVE",
"1074 1407 OFFCURVE",
"825 1407 CURVE SMOOTH",
"696 1407 OFFCURVE",
"579 1380 OFFCURVE",
"475 1325 CURVE SMOOTH",
"267 1215 OFFCURVE",
"143 1002 OFFCURVE",
"143 741 CURVE SMOOTH",
"143 616 OFFCURVE",
"172 501 OFFCURVE",
"231 398 CURVE SMOOTH",
"347 190 OFFCURVE",
"568 66 OFFCURVE",
"821 66 CURVE SMOOTH"
);
},
{
closed = 1;
nodes = (
"706 221 OFFCURVE",
"606 250 OFFCURVE",
"524 307 CURVE",
"821 631 LINE",
"1116 303 LINE",
"1034 248 OFFCURVE",
"936 221 OFFCURVE",
"823 221 CURVE SMOOTH"
);
},
{
closed = 1;
nodes = (
"345 505 OFFCURVE",
"313 615 OFFCURVE",
"313 741 CURVE SMOOTH",
"313 871 OFFCURVE",
"347 982 OFFCURVE",
"414 1073 CURVE",
"713 745 LINE",
"410 412 LINE"
);
},
{
closed = 1;
nodes = (
"922 745 LINE",
"1229 1077 LINE",
"1300 983 OFFCURVE",
"1335 871 OFFCURVE",
"1335 741 CURVE SMOOTH",
"1335 610 OFFCURVE",
"1301 499 OFFCURVE",
"1233 410 CURVE"
);
},
{
closed = 1;
nodes = (
"530 1176 LINE",
"612 1229 OFFCURVE",
"709 1255 OFFCURVE",
"821 1255 CURVE SMOOTH",
"932 1255 OFFCURVE",
"1028 1229 OFFCURVE",
"1110 1178 CURVE",
"821 860 LINE"
);
}
);
width = 1653;
}
);
note = g12;
},
{
glyphname = g13;
lastChange = "2016-11-10 14:19:37 +0000";
layers = (
{
layerId = "60C83504-FF70-4262-AE64-4B4BEFC19963";
paths = (
{
closed = 1;
nodes = (
"424 0 LINE",
"424 1462 LINE",
"240 1462 LINE",
"240 0 LINE"
);
}
);
width = 664;
}
);
note = g13;
},
{
glyphname = g14;
lastChange = "2016-11-10 14:19:37 +0000";
layers = (
{
layerId = "60C83504-FF70-4262-AE64-4B4BEFC19963";
paths = (
{
closed = 1;
nodes = (
"1094 0 LINE",
"1094 1462 LINE",
"909 1462 LINE",
"909 791 LINE",
"217 1382 LINE",
"98 1247 LINE",
"670 774 LINE",
"106 236 LINE",
"242 102 LINE",
"909 748 LINE",
"909 0 LINE"
);
}
);
width = 1333;
}
);
note = g14;
},
{
glyphname = g15;
lastChange = "2016-11-10 14:19:37 +0000";
layers = (
{
layerId = "60C83504-FF70-4262-AE64-4B4BEFC19963";
paths = (
{
closed = 1;
nodes = (
"922 14 LINE",
"922 1462 LINE",
"737 1462 LINE",
"737 205 LINE",
"160 463 LINE",
"76 299 LINE",
"838 -20 LINE"
);
}
);
width = 1161;
}
);
note = g15;
},
{
glyphname = g16;
lastChange = "2016-11-10 14:19:37 +0000";
layers = (
{
layerId = "60C83504-FF70-4262-AE64-4B4BEFC19963";
paths = (
{
closed = 1;
nodes = (
"1651 16 LINE",
"1343 1421 LINE",
"1159 1421 LINE",
"831 731 LINE",
"541 1421 LINE",
"371 1421 LINE",
"82 696 LINE",
"252 641 LINE",
"457 1176 LINE",
"752 492 LINE",
"901 492 LINE",
"1214 1161 LINE",
"1470 -23 LINE"
);
}
);
width = 1769;
}
);
note = g16;
},
{
glyphname = g17;
lastChange = "2016-11-10 14:19:37 +0000";
layers = (
{
layerId = "60C83504-FF70-4262-AE64-4B4BEFC19963";
paths = (
{
closed = 1;
nodes = (
"1372 20 LINE",
"1085 1421 LINE",
"911 1421 LINE",
"514 727 LINE",
"258 1440 LINE",
"82 1382 LINE",
"410 492 LINE",
"567 492 LINE",
"950 1159 LINE",
"1190 -20 LINE"
);
}
);
width = 1491;
}
);
note = g17;
},
{
glyphname = g18;
lastChange = "2016-11-10 14:19:37 +0000";
layers = (
{
layerId = "60C83504-FF70-4262-AE64-4B4BEFC19963";
paths = (
{
closed = 1;
nodes = (
"1522 82 LINE",
"1522 1380 LINE",
"240 1380 LINE",
"240 82 LINE"
);
},
{
closed = 1;
nodes = (
"412 653 LINE",
"795 653 LINE",
"795 240 LINE",
"412 240 LINE"
);
},
{
closed = 1;
nodes = (
"967 653 LINE",
"1350 653 LINE",
"1350 240 LINE",
"967 240 LINE"
);
},
{
closed = 1;
nodes = (
"412 1223 LINE",
"795 1223 LINE",
"795 811 LINE",
"412 811 LINE"
);
},
{
closed = 1;
nodes = (
"967 1223 LINE",
"1350 1223 LINE",
"1350 811 LINE",
"967 811 LINE"
);
}
);
width = 1761;
}
);
note = g18;
},
{
glyphname = g19;
lastChange = "2016-11-10 14:19:37 +0000";
layers = (
{
layerId = "60C83504-FF70-4262-AE64-4B4BEFC19963";
paths = (
{
closed = 1;
nodes = (
"948 55 OFFCURVE",
"1062 85 OFFCURVE",
"1169 146 CURVE SMOOTH",
"1384 266 OFFCURVE",
"1509 483 OFFCURVE",
"1509 735 CURVE SMOOTH",
"1509 862 OFFCURVE",
"1479 977 OFFCURVE",
"1418 1080 CURVE SMOOTH",
"1296 1287 OFFCURVE",
"1070 1411 OFFCURVE",
"829 1411 CURVE SMOOTH",
"706 1411 OFFCURVE",
"591 1382 OFFCURVE",
"485 1323 CURVE SMOOTH",
"272 1206 OFFCURVE",
"143 986 OFFCURVE",
"143 737 CURVE SMOOTH",
"143 609 OFFCURVE",
"172 494 OFFCURVE",
"231 391 CURVE SMOOTH",
"348 186 OFFCURVE",
"574 55 OFFCURVE",
"827 55 CURVE SMOOTH"
);
},
{
closed = 1;
nodes = (
"735 221 OFFCURVE",
"651 243 OFFCURVE",
"575 288 CURVE SMOOTH",
"422 376 OFFCURVE",
"330 542 OFFCURVE",
"330 735 CURVE SMOOTH",
"330 831 OFFCURVE",
"352 918 OFFCURVE",
"395 997 CURVE SMOOTH",
"482 1153 OFFCURVE",
"645 1247 OFFCURVE",
"829 1247 CURVE SMOOTH",
"919 1247 OFFCURVE",
"1002 1225 OFFCURVE",
"1078 1182 CURVE SMOOTH",
"1230 1094 OFFCURVE",
"1321 928 OFFCURVE",
"1321 735 CURVE SMOOTH",
"1321 637 OFFCURVE",
"1300 549 OFFCURVE",
"1257 471 CURVE SMOOTH",
"1172 314 OFFCURVE",
"1011 221 OFFCURVE",
"827 221 CURVE SMOOTH"
);
}
);
width = 1653;
}
);
note = g19;
},
{
glyphname = g20;
lastChange = "2016-11-10 14:19:37 +0000";
layers = (
{
layerId = "60C83504-FF70-4262-AE64-4B4BEFC19963";
paths = (
{
closed = 1;
nodes = (
"1112 0 LINE",
"1112 1401 LINE",
"160 1401 LINE",
"160 748 LINE",
"344 748 LINE",
"344 1237 LINE",
"928 1237 LINE",
"928 0 LINE"
);
}
);
width = 1352;
}
);
note = g20;
},
{
glyphname = g21;
lastChange = "2016-11-10 14:19:37 +0000";
layers = (
{
layerId = "60C83504-FF70-4262-AE64-4B4BEFC19963";
paths = (
{
closed = 1;
nodes = (
"395 0 LINE",
"395 1196 LINE",
"784 858 LINE",
"1176 1196 LINE",
"1176 0 LINE",
"1358 0 LINE",
"1358 1454 LINE",
"1262 1475 LINE",
"786 1075 LINE",
"322 1475 LINE",
"225 1454 LINE",
"225 0 LINE"
);
}
);
width = 1583;
}
);
note = g21;
},
{
glyphname = g22;
lastChange = "2016-11-10 14:19:37 +0000";
layers = (
{
layerId = "60C83504-FF70-4262-AE64-4B4BEFC19963";
paths = (
{
closed = 1;
nodes = (
"815 -102 LINE",
"815 291 LINE",
"911 304 OFFCURVE",
"998 337 OFFCURVE",
"1076 389 CURVE SMOOTH",
"1232 492 OFFCURVE",
"1325 663 OFFCURVE",
"1325 860 CURVE SMOOTH",
"1325 967 OFFCURVE",
"1300 1063 OFFCURVE",
"1250 1147 CURVE SMOOTH",
"1149 1314 OFFCURVE",
"948 1423 OFFCURVE",
"727 1423 CURVE SMOOTH",
"618 1423 OFFCURVE",
"517 1399 OFFCURVE",
"424 1351 CURVE SMOOTH",
"239 1254 OFFCURVE",
"125 1072 OFFCURVE",
"125 860 CURVE SMOOTH",
"125 762 OFFCURVE",
"147 673 OFFCURVE",
"190 592 CURVE SMOOTH",
"276 430 OFFCURVE",
"439 320 OFFCURVE",
"631 291 CURVE",
"631 -102 LINE"
);
},
{
closed = 1;
nodes = (
"648 434 OFFCURVE",
"578 452 OFFCURVE",
"515 489 CURVE SMOOTH",
"388 561 OFFCURVE",
"311 699 OFFCURVE",
"311 860 CURVE SMOOTH",
"311 939 OFFCURVE",
"328 1009 OFFCURVE",
"363 1072 CURVE SMOOTH",
"432 1197 OFFCURVE",
"567 1272 OFFCURVE",
"723 1272 CURVE SMOOTH",
"802 1272 OFFCURVE",
"873 1255 OFFCURVE",
"937 1220 CURVE SMOOTH",
"1065 1150 OFFCURVE",
"1139 1019 OFFCURVE",
"1139 860 CURVE SMOOTH",
"1139 778 OFFCURVE",
"1121 705 OFFCURVE",
"1085 640 CURVE SMOOTH",
"1012 511 OFFCURVE",
"876 434 OFFCURVE",
"725 434 CURVE SMOOTH"
);
}
);
width = 1450;
}
);
note = g22;
},
{
glyphname = g23;
lastChange = "2016-11-10 14:19:37 +0000";
layers = (
{
layerId = "60C83504-FF70-4262-AE64-4B4BEFC19963";
paths = (
{
closed = 1;
nodes = (
"1145 25 LINE",
"1145 1458 LINE",
"1036 1483 LINE",
"855 1412 OFFCURVE",
"695 1332 OFFCURVE",
"556 1243 CURVE SMOOTH",
"278 1066 OFFCURVE",
"113 874 OFFCURVE",
"113 731 CURVE SMOOTH",
"113 652 OFFCURVE",
"171 534 OFFCURVE",
"316 402 CURVE SMOOTH",
"461 269 OFFCURVE",
"693 123 OFFCURVE",
"1040 -12 CURVE"
);
},
{
closed = 1;
nodes = (
"830 256 OFFCURVE",
"717 315 OFFCURVE",
"620 379 CURVE SMOOTH",
"427 507 OFFCURVE",
"315 640 OFFCURVE",
"315 731 CURVE SMOOTH",
"315 779 OFFCURVE",
"345 837 OFFCURVE",
"404 905 CURVE SMOOTH",
"523 1041 OFFCURVE",
"738 1181 OFFCURVE",
"961 1266 CURVE",
"961 203 LINE"
);
}
);
width = 1384;
}
);
note = g23;
},
{
glyphname = g24;
lastChange = "2016-11-10 14:19:37 +0000";
layers = (
{
layerId = "60C83504-FF70-4262-AE64-4B4BEFC19963";
paths = (
{
closed = 1;
nodes = (
"883 88 LINE",
"674 156 OFFCURVE",
"515 233 OFFCURVE",
"421 309 CURVE SMOOTH",
"374 346 OFFCURVE",
"350 377 OFFCURVE",
"350 401 CURVE SMOOTH",
"350 433 OFFCURVE",
"370 471 OFFCURVE",
"409 514 CURVE SMOOTH",
"448 557 OFFCURVE",
"520 620 OFFCURVE",
"624 703 CURVE SMOOTH",
"805 847 OFFCURVE",
"897 965 OFFCURVE",
"897 1069 CURVE SMOOTH",
"897 1144 OFFCURVE",
"838 1221 OFFCURVE",
"720 1300 CURVE SMOOTH",
"601 1379 OFFCURVE",
"441 1449 OFFCURVE",
"238 1511 CURVE",
"172 1354 LINE",
"317 1308 OFFCURVE",
"441 1257 OFFCURVE",
"542 1201 CURVE SMOOTH",
"643 1145 OFFCURVE",
"694 1098 OFFCURVE",
"694 1059 CURVE SMOOTH",
"694 1030 OFFCURVE",
"678 997 OFFCURVE",
"645 960 CURVE SMOOTH",
"612 923 OFFCURVE",
"539 857 OFFCURVE",
"426 764 CURVE SMOOTH",
"242 609 OFFCURVE",
"158 496 OFFCURVE",
"158 393 CURVE SMOOTH",
"158 315 OFFCURVE",
"211 238 OFFCURVE",
"318 163 CURVE SMOOTH",
"424 87 OFFCURVE",
"590 9 OFFCURVE",
"817 -72 CURVE"
);
}
);
width = 1044;
}
);
note = g24;
},
{
glyphname = g25;
lastChange = "2016-11-10 14:19:37 +0000";
layers = (
{
layerId = "60C83504-FF70-4262-AE64-4B4BEFC19963";
paths = (
{
closed = 1;
nodes = (
"733 0 LINE",
"733 823 LINE",
"1184 696 LINE",
"1237 858 LINE",
"733 999 LINE",
"733 1464 LINE",
"549 1464 LINE",
"549 1051 LINE",
"100 1180 LINE",
"47 1016 LINE",
"549 868 LINE",
"549 0 LINE"
);
}
);
width = 1284;
}
);
note = g25;
},
{
glyphname = g26;
lastChange = "2016-11-10 14:19:37 +0000";
layers = (
{
layerId = "60C83504-FF70-4262-AE64-4B4BEFC19963";
paths = (
{
closed = 1;
nodes = (
"770 80 LINE",
"1358 1350 LINE",
"1184 1411 LINE",
"682 297 LINE",
"201 1411 LINE",
"27 1350 LINE",
"594 80 LINE"
);
}
);
width = 1384;
}
);
note = g26;
},
{
glyphname = g27;
lastChange = "2016-11-10 14:19:37 +0000";
layers = (
{
layerId = "60C83504-FF70-4262-AE64-4B4BEFC19963";
paths = (
{
closed = 1;
nodes = (
"649 625 LINE",
"1077 41 LINE",
"1245 123 LINE",
"760 756 LINE",
"1210 1339 LINE",
"1057 1421 LINE",
"655 879 LINE",
"256 1421 LINE",
"92 1339 LINE",
"545 752 LINE",
"61 123 LINE",
"215 41 LINE"
);
}
);
width = 1307;
}
);
note = g27;
},
{
glyphname = g28;
lastChange = "2016-11-10 14:19:37 +0000";
layers = (
{
layerId = "60C83504-FF70-4262-AE64-4B4BEFC19963";
paths = (
{
closed = 1;
nodes = (
"856 -102 LINE",
"856 319 LINE",
"962 329 OFFCURVE",
"1056 359 OFFCURVE",
"1137 410 CURVE SMOOTH",
"1300 511 OFFCURVE",
"1395 683 OFFCURVE",
"1395 872 CURVE SMOOTH",
"1395 977 OFFCURVE",
"1370 1071 OFFCURVE",
"1319 1155 CURVE SMOOTH",
"1218 1323 OFFCURVE",
"1019 1423 OFFCURVE",
"766 1423 CURVE SMOOTH",
"647 1423 OFFCURVE",
"539 1400 OFFCURVE",
"442 1353 CURVE SMOOTH",
"247 1259 OFFCURVE",
"133 1083 OFFCURVE",
"133 872 CURVE SMOOTH",
"133 777 OFFCURVE",
"155 688 OFFCURVE",
"200 607 CURVE SMOOTH",
"289 444 OFFCURVE",
"459 338 OFFCURVE",
"680 319 CURVE",
"680 -102 LINE"
);
},
{
closed = 1;
nodes = (
"461 502 OFFCURVE",
"322 655 OFFCURVE",
"322 872 CURVE SMOOTH",
"322 1089 OFFCURVE",
"460 1241 OFFCURVE",
"680 1266 CURVE",
"680 471 LINE"
);
},
{
closed = 1;
nodes = (
"856 1264 LINE",
"1067 1236 OFFCURVE",
"1208 1088 OFFCURVE",
"1208 872 CURVE SMOOTH",
"1208 657 OFFCURVE",
"1069 502 OFFCURVE",
"856 471 CURVE"
);
}
);
width = 1528;
}
);
note = g28;
},
{
glyphname = g29;
lastChange = "2016-11-10 14:19:37 +0000";
layers = (
{
layerId = "60C83504-FF70-4262-AE64-4B4BEFC19963";
paths = (
{
closed = 1;
nodes = (
"827 0 LINE",
"827 444 LINE",
"1430 1120 LINE",
"1294 1235 LINE",
"827 686 LINE",
"827 1462 LINE",
"643 1462 LINE",
"643 686 LINE",
"168 1243 LINE",
"27 1126 LINE",
"643 444 LINE",
"643 0 LINE"
);
}
);
width = 1456;
}
);
note = g29;
},
{
glyphname = g30;
lastChange = "2016-11-10 14:19:37 +0000";
layers = (
{
layerId = "60C83504-FF70-4262-AE64-4B4BEFC19963";
paths = (
{
closed = 1;
nodes = (
"769 -20 OFFCURVE",
"856 -2 OFFCURVE",
"935 33 CURVE SMOOTH",
"1091 104 OFFCURVE",
"1184 234 OFFCURVE",
"1184 383 CURVE SMOOTH",
"1184 544 OFFCURVE",
"1089 668 OFFCURVE",
"893 739 CURVE",
"1058 812 OFFCURVE",
"1157 942 OFFCURVE",
"1157 1081 CURVE SMOOTH",
"1157 1153 OFFCURVE",
"1136 1220 OFFCURVE",
"1094 1283 CURVE SMOOTH",
"1009 1408 OFFCURVE",
"853 1483 OFFCURVE",
"668 1483 CURVE SMOOTH",
"579 1483 OFFCURVE",
"496 1465 OFFCURVE",
"421 1428 CURVE SMOOTH",
"270 1354 OFFCURVE",
"176 1216 OFFCURVE",
"176 1071 CURVE SMOOTH",
"176 931 OFFCURVE",
"281 792 OFFCURVE",
"438 735 CURVE",
"251 663 OFFCURVE",
"154 533 OFFCURVE",
"154 377 CURVE SMOOTH",
"154 302 OFFCURVE",
"176 234 OFFCURVE",
"220 173 CURVE SMOOTH",
"308 52 OFFCURVE",
"476 -20 OFFCURVE",
"672 -20 CURVE SMOOTH"
);
},
{
closed = 1;
nodes = (
"485 137 OFFCURVE",
"340 248 OFFCURVE",
"340 391 CURVE SMOOTH",
"340 546 OFFCURVE",
"482 659 OFFCURVE",
"667 659 CURVE SMOOTH",
"847 659 OFFCURVE",
"997 551 OFFCURVE",
"997 412 CURVE SMOOTH",
"997 248 OFFCURVE",
"856 137 OFFCURVE",
"668 137 CURVE SMOOTH"
);
},
{
closed = 1;
nodes = (
"505 815 OFFCURVE",
"367 926 OFFCURVE",
"367 1065 CURVE SMOOTH",
"367 1109 OFFCURVE",
"380 1151 OFFCURVE",
"406 1191 CURVE SMOOTH",
"458 1271 OFFCURVE",
"555 1321 OFFCURVE",
"664 1321 CURVE SMOOTH",
"720 1321 OFFCURVE",
"771 1309 OFFCURVE",
"817 1286 CURVE SMOOTH",
"909 1239 OFFCURVE",
"965 1154 OFFCURVE",
"965 1065 CURVE SMOOTH",
"965 922 OFFCURVE",
"835 815 OFFCURVE",
"672 815 CURVE SMOOTH"
);
}
);
width = 1337;
}
);
note = g30;
},
{
glyphname = g31;
lastChange = "2016-11-10 14:19:37 +0000";
layers = (
{
layerId = "60C83504-FF70-4262-AE64-4B4BEFC19963";
paths = (
{
closed = 1;
nodes = (
"979 0 LINE",
"979 1442 LINE",
"870 1481 LINE",
"629 1399 OFFCURVE",
"441 1309 OFFCURVE",
"307 1211 CURVE SMOOTH",
"173 1112 OFFCURVE",
"106 1017 OFFCURVE",
"106 924 CURVE SMOOTH",
"106 713 OFFCURVE",
"328 540 OFFCURVE",
"795 375 CURVE",
"795 0 LINE"
);
},
{
closed = 1;
nodes = (
"470 676 OFFCURVE",
"307 799 OFFCURVE",
"307 918 CURVE SMOOTH",
"307 977 OFFCURVE",
"350 1039 OFFCURVE",
"436 1104 CURVE SMOOTH",
"522 1169 OFFCURVE",
"642 1231 OFFCURVE",
"795 1290 CURVE",
"795 551 LINE"
);
}
);
width = 1219;
}
);
note = g31;
},
{
glyphname = g32;
lastChange = "2016-11-10 14:19:37 +0000";
layers = (
{
layerId = "60C83504-FF70-4262-AE64-4B4BEFC19963";
paths = (
{
closed = 1;
nodes = (
"979 16 LINE",
"979 1464 LINE",
"795 1464 LINE",
"795 1067 LINE",
"574 985 OFFCURVE",
"404 898 OFFCURVE",
"285 807 CURVE SMOOTH",
"166 716 OFFCURVE",
"106 626 OFFCURVE",
"106 537 CURVE SMOOTH",
"106 429 OFFCURVE",
"170 328 OFFCURVE",
"299 235 CURVE SMOOTH",
"428 141 OFFCURVE",
"618 57 OFFCURVE",
"870 -16 CURVE"
);
},
{
closed = 1;
nodes = (
"470 292 OFFCURVE",
"307 411 OFFCURVE",
"307 530 CURVE SMOOTH",
"307 589 OFFCURVE",
"348 651 OFFCURVE",
"431 714 CURVE SMOOTH",
"514 777 OFFCURVE",
"635 840 OFFCURVE",
"795 903 CURVE",
"795 174 LINE"
);
}
);
width = 1219;
}
);
note = g32;
},
{
glyphname = g33;
lastChange = "2016-11-10 14:19:37 +0000";
layers = (
{
layerId = "60C83504-FF70-4262-AE64-4B4BEFC19963";
paths = (
{
closed = 1;
nodes = (
"424 0 LINE",
"424 647 LINE",
"915 647 LINE",
"915 809 LINE",
"424 809 LINE",
"424 1462 LINE",
"240 1462 LINE",
"240 0 LINE"
);
}
);
width = 1008;
}
);
note = g33;
},
{
glyphname = g34;
lastChange = "2016-11-10 14:19:37 +0000";
layers = (
{
layerId = "60C83504-FF70-4262-AE64-4B4BEFC19963";
paths = (
{
closed = 1;
nodes = (
"770 100 LINE",
"1358 1370 LINE",
"1184 1432 LINE",
"682 317 LINE",
"201 1432 LINE",
"27 1370 LINE",
"594 100 LINE"
);
},
{
closed = 1;
nodes = (
"753 1206 OFFCURVE",
"795 1249 OFFCURVE",
"795 1321 CURVE SMOOTH",
"795 1390 OFFCURVE",
"755 1436 OFFCURVE",
"690 1436 CURVE SMOOTH",
"630 1436 OFFCURVE",
"584 1401 OFFCURVE",
"584 1321 CURVE SMOOTH",
"584 1242 OFFCURVE",
"630 1206 OFFCURVE",
"690 1206 CURVE SMOOTH"
);
}
);
width = 1384;
}
);
note = g34;
},
{
glyphname = g35;
lastChange = "2016-11-10 14:19:37 +0000";
layers = (
{
layerId = "60C83504-FF70-4262-AE64-4B4BEFC19963";
paths = (
{
closed = 1;
nodes = (
"451 0 LINE",
"451 1462 LINE",
"266 1462 LINE",
"266 0 LINE"
);
}
);
width = 717;
}
);
note = g35;
},
{
glyphname = g36;
lastChange = "2016-11-10 14:19:37 +0000";
layers = (
{
layerId = "60C83504-FF70-4262-AE64-4B4BEFC19963";
paths = (
{
closed = 1;
nodes = (
"702 1174 LINE",
"1184 59 LINE",
"1358 121 LINE",
"791 1391 LINE",
"614 1391 LINE",
"27 121 LINE",
"201 59 LINE"
);
}
);
width = 1384;
}
);
note = g36;
},
{
glyphname = g37;
lastChange = "2016-11-10 14:19:37 +0000";
layers = (
{
layerId = "60C83504-FF70-4262-AE64-4B4BEFC19963";
paths = (
{
closed = 1;
nodes = (
"649 625 LINE",
"1077 41 LINE",
"1245 123 LINE",
"760 756 LINE",
"1210 1339 LINE",
"1057 1421 LINE",
"655 879 LINE",
"256 1421 LINE",
"92 1339 LINE",
"545 752 LINE",
"61 123 LINE",
"215 41 LINE"
);
}
);
width = 1307;
}
);
note = g37;
},
{
glyphname = g38;
lastChange = "2016-11-10 14:19:37 +0000";
layers = (
{
layerId = "60C83504-FF70-4262-AE64-4B4BEFC19963";
paths = (
{
closed = 1;
nodes = (
"711 0 LINE",
"711 1251 LINE",
"1100 969 LINE",
"1190 1100 LINE",
"618 1513 LINE",
"47 1100 LINE",
"137 969 LINE",
"526 1251 LINE",
"526 0 LINE"
);
}
